<svg width="42" height="42" viewBox="0 0 42 42" fill="none" xmlns="http://www.w3.org/2000/svg">
<g id="bi:github">
<path id="Vector" d="M21 0C9.3975 0 0 9.3975 0 21C0 30.2925 6.01125 38.1413 14.3587 40.9238C15.4087 41.1075 15.8025 40.4775 15.8025 39.9263C15.8025 39.4275 15.7763 37.7738 15.7763 36.015C10.5 36.9863 9.135 34.7287 8.715 33.5475C8.47875 32.9437 7.455 31.08 6.5625 30.5812C5.8275 30.1875 4.7775 29.2162 6.53625 29.19C8.19 29.1637 9.37125 30.7125 9.765 31.3425C11.655 34.5187 14.6738 33.6263 15.8813 33.075C16.065 31.71 16.6162 30.7913 17.22 30.2662C12.5475 29.7412 7.665 27.93 7.665 19.8975C7.665 17.6138 8.47875 15.7237 9.8175 14.2537C9.6075 13.7287 8.8725 11.5763 10.0275 8.68875C10.0275 8.68875 11.7863 8.1375 15.8025 10.8413C17.4825 10.3688 19.2675 10.1325 21.0525 10.1325C22.8375 10.1325 24.6225 10.3688 26.3025 10.8413C30.3188 8.11125 32.0775 8.68875 32.0775 8.68875C33.2325 11.5763 32.4975 13.7287 32.2875 14.2537C33.6263 15.7237 34.44 17.5875 34.44 19.8975C34.44 27.9562 29.5312 29.7412 24.8588 30.2662C25.62 30.9225 26.2763 32.1825 26.2763 34.1512C26.2763 36.96 26.25 39.2175 26.25 39.9263C26.25 40.4775 26.6438 41.1338 27.6938 40.9238C31.8628 39.5167 35.4856 36.8375 38.0521 33.2634C40.6185 29.6892 41.9993 25.4001 42 21C42 9.3975 32.6025 0 21 0Z" fill="white"/>
</g>
</svg>
