<svg xmlns="http://www.w3.org/2000/svg" viewBox="0 0 24 24" id="light-bulb"><g data-name="Layer 2"><path fill="#ffc76c" d="M18.75,12a6.733,6.733,0,0,1-2.25,5.02,2.218,2.218,0,0,0-.72,1.23,1.628,1.628,0,0,0-.03.31V20A2.748,2.748,0,0,1,13,22.75H11A2.748,2.748,0,0,1,8.25,20V18.66a2.728,2.728,0,0,0-.03-.41,2,2,0,0,0-.62-1.14A6.743,6.743,0,1,1,18.75,12Z"></path><path fill="#fcdca4" d="M12 4.75A.75.75 0 0111.25 4V2a.75.75 0 011.5 0V4A.75.75 0 0112 4.75zM17.657 7.093a.75.75 0 01-.53-1.28L18.541 4.4A.75.75 0 0119.6 5.459L18.188 6.873A.746.746 0 0117.657 7.093zM22 12.75H20a.75.75 0 010-1.5h2a.75.75 0 010 1.5zM6.343 7.093a.742.742 0 01-.53-.22L4.4 5.459A.75.75 0 015.459 4.4L6.873 5.813a.75.75 0 01-.53 1.28zM4 12.75H2a.75.75 0 010-1.5H4a.75.75 0 010 1.5zM15.75 18.66V20A2.748 2.748 0 0113 22.75H11A2.748 2.748 0 018.25 20V18.66z"></path></g></svg>