<svg width="556" height="197" viewBox="0 0 556 197" fill="none" xmlns="http://www.w3.org/2000/svg">
<mask id="path-1-outside-1_70_77" maskUnits="userSpaceOnUse" x="140" y="34" width="279" height="118" fill="black">
<rect fill="white" x="140" y="34" width="279" height="118"/>
<path d="M141.168 148V38.1367H214.41V63.4053H170.172V80.3975H211.481V105.666H170.172V122.731H215.143V148H141.168ZM325.079 134.377C319.903 139.357 313.775 143.239 306.695 146.022C299.664 148.806 291.998 150.197 283.697 150.197C275.348 150.197 267.608 148.781 260.48 145.949C253.4 143.068 247.223 139.064 241.949 133.938C236.725 128.762 232.648 122.707 229.718 115.773C226.837 108.84 225.397 101.271 225.397 93.0684C225.397 84.8652 226.837 77.2969 229.718 70.3633C232.648 63.4297 236.725 57.3994 241.949 52.2725C247.223 47.0967 253.4 43.0928 260.48 40.2607C267.608 37.3799 275.348 35.9395 283.697 35.9395C291.949 35.9395 299.566 37.3555 306.549 40.1875C313.58 42.9707 319.684 46.8525 324.859 51.833L304.645 72.1943C302.106 68.7764 298.981 66.0908 295.27 64.1377C291.608 62.1846 287.604 61.208 283.258 61.208C279.254 61.208 275.543 62.0137 272.125 63.625C268.707 65.2363 265.704 67.4824 263.116 70.3633C260.577 73.2441 258.6 76.6133 257.184 80.4707C255.768 84.3281 255.06 88.5029 255.06 92.9951C255.06 97.5361 255.768 101.735 257.184 105.593C258.6 109.45 260.577 112.844 263.116 115.773C265.704 118.654 268.707 120.9 272.125 122.512C275.543 124.123 279.254 124.929 283.258 124.929C287.604 124.929 291.608 123.952 295.27 121.999C298.932 120.046 302.032 117.36 304.571 113.942L325.079 134.377ZM331.744 135.402L345.367 113.283C348.932 116.066 352.252 118.337 355.328 120.095C358.453 121.853 361.481 123.146 364.41 123.977C367.389 124.758 370.416 125.148 373.492 125.148C376.52 125.148 379.108 124.807 381.256 124.123C383.404 123.391 385.04 122.365 386.163 121.047C387.335 119.68 387.921 118.068 387.921 116.213C387.921 113.869 387.091 111.867 385.431 110.207C383.771 108.547 381.549 107.058 378.766 105.739C376.031 104.421 373.028 103.103 369.757 101.784C366.241 100.368 362.652 98.8057 358.99 97.0967C355.328 95.3389 351.959 93.2148 348.883 90.7246C345.807 88.2344 343.316 85.207 341.412 81.6426C339.508 78.0293 338.556 73.6348 338.556 68.459C338.556 61.623 340.265 55.7881 343.683 50.9541C347.15 46.0713 351.861 42.3604 357.818 39.8213C363.824 37.2334 370.611 35.9395 378.18 35.9395C383.697 35.9395 389.532 36.6719 395.685 38.1367C401.837 39.6016 408.063 41.8965 414.361 45.0215L403.082 68.3125C399.566 66.1641 395.709 64.4551 391.51 63.1855C387.359 61.8672 383.551 61.208 380.084 61.208C377.691 61.208 375.592 61.5254 373.785 62.1602C372.027 62.7949 370.66 63.7227 369.684 64.9434C368.707 66.1152 368.219 67.5068 368.219 69.1182C368.219 71.2666 369.049 73.1709 370.709 74.8311C372.369 76.4424 374.566 77.9316 377.301 79.2988C380.035 80.666 383.014 82.0576 386.236 83.4736C389.752 84.9873 393.341 86.6719 397.003 88.5273C400.714 90.3828 404.108 92.5801 407.184 95.1191C410.309 97.6582 412.823 100.71 414.728 104.274C416.632 107.79 417.584 112.014 417.584 116.945C417.584 123.537 415.777 129.348 412.164 134.377C408.6 139.357 403.595 143.239 397.15 146.022C390.753 148.806 383.307 150.197 374.811 150.197C366.9 150.197 359.283 148.928 351.959 146.389C344.635 143.85 337.897 140.188 331.744 135.402Z"/>
</mask>
<path d="M141.168 148H140.168V149H141.168V148ZM141.168 38.1367V37.1367H140.168V38.1367H141.168ZM214.41 38.1367H215.41V37.1367H214.41V38.1367ZM214.41 63.4053V64.4053H215.41V63.4053H214.41ZM170.172 63.4053V62.4053H169.172V63.4053H170.172ZM170.172 80.3975H169.172V81.3975H170.172V80.3975ZM211.481 80.3975H212.481V79.3975H211.481V80.3975ZM211.481 105.666V106.666H212.481V105.666H211.481ZM170.172 105.666V104.666H169.172V105.666H170.172ZM170.172 122.731H169.172V123.731H170.172V122.731ZM215.143 122.731H216.143V121.731H215.143V122.731ZM215.143 148V149H216.143V148H215.143ZM142.168 148V38.1367H140.168V148H142.168ZM141.168 39.1367H214.41V37.1367H141.168V39.1367ZM213.41 38.1367V63.4053H215.41V38.1367H213.41ZM214.41 62.4053H170.172V64.4053H214.41V62.4053ZM169.172 63.4053V80.3975H171.172V63.4053H169.172ZM170.172 81.3975H211.481V79.3975H170.172V81.3975ZM210.481 80.3975V105.666H212.481V80.3975H210.481ZM211.481 104.666H170.172V106.666H211.481V104.666ZM169.172 105.666V122.731H171.172V105.666H169.172ZM170.172 123.731H215.143V121.731H170.172V123.731ZM214.143 122.731V148H216.143V122.731H214.143ZM215.143 147H141.168V149H215.143V147ZM325.079 134.377L325.773 135.098L326.508 134.389L325.785 133.669L325.079 134.377ZM306.695 146.022L306.33 145.092L306.327 145.093L306.695 146.022ZM260.48 145.949L260.103 146.876L260.11 146.879L260.48 145.949ZM241.949 133.938L241.246 134.648L241.252 134.654L241.949 133.938ZM229.718 115.773L228.794 116.157L228.797 116.163L229.718 115.773ZM229.718 70.3633L228.797 69.9741L228.794 69.9796L229.718 70.3633ZM241.949 52.2725L242.65 52.9862L242.65 52.9861L241.949 52.2725ZM260.48 40.2607L260.851 41.1892L260.854 41.1879L260.48 40.2607ZM306.549 40.1875L306.173 41.1142L306.181 41.1173L306.549 40.1875ZM324.859 51.833L325.569 52.5376L326.285 51.8167L325.553 51.1124L324.859 51.833ZM304.645 72.1943L303.842 72.7907L304.535 73.7239L305.354 72.8989L304.645 72.1943ZM295.27 64.1377L294.799 65.0201L294.804 65.0226L295.27 64.1377ZM263.116 70.3633L262.372 69.695L262.366 69.7021L263.116 70.3633ZM263.116 115.773L262.361 116.428L262.366 116.435L262.372 116.442L263.116 115.773ZM304.571 113.942L305.277 113.234L304.458 112.418L303.769 113.346L304.571 113.942ZM324.386 133.656C319.31 138.541 313.295 142.354 306.33 145.092L307.061 146.953C314.256 144.125 320.497 140.174 325.773 135.098L324.386 133.656ZM306.327 145.093C299.424 147.825 291.884 149.197 283.697 149.197V151.197C292.112 151.197 299.904 149.786 307.063 146.952L306.327 145.093ZM283.697 149.197C275.463 149.197 267.85 147.801 260.849 145.02L260.11 146.879C267.367 149.761 275.233 151.197 283.697 151.197V149.197ZM260.856 145.023C253.891 142.189 247.824 138.254 242.646 133.221L241.252 134.654C246.622 139.875 252.908 143.948 260.103 146.875L260.856 145.023ZM242.653 133.227C237.523 128.145 233.519 122.2 230.639 115.384L228.797 116.163C231.776 123.214 235.926 129.378 241.246 134.648L242.653 133.227ZM230.641 115.39C227.815 108.589 226.397 101.152 226.397 93.0684H224.397C224.397 101.391 225.859 109.091 228.794 116.157L230.641 115.39ZM226.397 93.0684C226.397 84.9847 227.815 77.5481 230.641 70.747L228.794 69.9796C225.859 77.0456 224.397 84.7458 224.397 93.0684H226.397ZM230.639 70.7525C233.519 63.9371 237.522 58.018 242.65 52.9862L241.249 51.5587C235.927 56.7808 231.776 62.9223 228.797 69.9741L230.639 70.7525ZM242.65 52.9861C247.826 47.906 253.89 43.9737 260.851 41.1892L260.108 39.3323C252.909 42.2118 246.62 46.2874 241.249 51.5588L242.65 52.9861ZM260.854 41.1879C267.854 38.3591 275.465 36.9395 283.697 36.9395V34.9395C275.23 34.9395 267.363 36.4006 260.105 39.3336L260.854 41.1879ZM283.697 36.9395C291.833 36.9395 299.321 38.335 306.173 41.1142L306.925 39.2608C299.812 36.3759 292.066 34.9395 283.697 34.9395V36.9395ZM306.181 41.1173C313.098 43.8552 319.089 47.6681 324.166 52.5536L325.553 51.1124C320.278 46.037 314.063 42.0862 306.917 39.2577L306.181 41.1173ZM324.15 51.1285L303.935 71.4898L305.354 72.8989L325.569 52.5376L324.15 51.1285ZM305.447 71.598C302.82 68.0617 299.581 65.2768 295.735 63.2528L294.804 65.0226C298.38 66.9049 301.391 69.491 303.842 72.7907L305.447 71.598ZM295.74 63.2553C291.926 61.2213 287.76 60.208 283.258 60.208V62.208C287.447 62.208 291.289 63.1478 294.799 65.02L295.74 63.2553ZM283.258 60.208C279.116 60.208 275.258 61.0426 271.699 62.7205L272.552 64.5295C275.828 62.9848 279.392 62.208 283.258 62.208V60.208ZM271.699 62.7205C268.157 64.39 265.047 66.7176 262.372 69.695L263.86 71.0315C266.361 68.2473 269.257 66.0826 272.552 64.5295L271.699 62.7205ZM262.366 69.7021C259.74 72.6822 257.701 76.1606 256.245 80.1261L258.122 80.8153C259.499 77.066 261.415 73.8061 263.867 71.0245L262.366 69.7021ZM256.245 80.1261C254.785 84.1037 254.06 88.3963 254.06 92.9951H256.06C256.06 88.6095 256.751 84.5525 258.122 80.8153L256.245 80.1261ZM254.06 92.9951C254.06 97.6414 254.784 101.959 256.245 105.937L258.122 105.248C256.751 101.512 256.06 97.4309 256.06 92.9951H254.06ZM256.245 105.937C257.7 109.902 259.738 113.402 262.361 116.428L263.872 115.119C261.417 112.286 259.499 108.999 258.122 105.248L256.245 105.937ZM262.372 116.442C265.047 119.419 268.157 121.747 271.699 123.416L272.552 121.607C269.257 120.054 266.361 117.889 263.86 115.105L262.372 116.442ZM271.699 123.416C275.258 125.094 279.116 125.929 283.258 125.929V123.929C279.392 123.929 275.828 123.152 272.552 121.607L271.699 123.416ZM283.258 125.929C287.76 125.929 291.926 124.915 295.74 122.881L294.799 121.117C291.289 122.989 287.447 123.929 283.258 123.929V125.929ZM295.74 122.881C299.536 120.857 302.749 118.072 305.374 114.539L303.769 113.346C301.315 116.648 298.327 119.235 294.799 121.117L295.74 122.881ZM303.866 114.651L324.373 135.085L325.785 133.669L305.277 113.234L303.866 114.651ZM331.744 135.402L330.893 134.878L330.423 135.641L331.13 136.192L331.744 135.402ZM345.367 113.283L345.983 112.495L345.102 111.807L344.516 112.759L345.367 113.283ZM355.328 120.095L354.832 120.963L354.838 120.966L355.328 120.095ZM364.41 123.977L364.138 124.939L364.147 124.941L364.157 124.944L364.41 123.977ZM381.256 124.123L381.559 125.076L381.569 125.073L381.579 125.07L381.256 124.123ZM386.163 121.047L385.404 120.396L385.402 120.398L386.163 121.047ZM378.766 105.739L378.331 106.64L378.338 106.643L378.766 105.739ZM369.757 101.784L370.131 100.857L370.131 100.857L369.757 101.784ZM358.99 97.0967L358.558 97.9983L358.567 98.0029L358.99 97.0967ZM341.412 81.6426L340.528 82.1088L340.53 82.1138L341.412 81.6426ZM343.683 50.9541L342.867 50.3752L342.866 50.3768L343.683 50.9541ZM357.818 39.8213L358.211 40.7412L358.214 40.7397L357.818 39.8213ZM414.361 45.0215L415.261 45.4573L415.693 44.5659L414.806 44.1257L414.361 45.0215ZM403.082 68.3125L402.561 69.1658L403.502 69.7408L403.982 68.7484L403.082 68.3125ZM391.51 63.1855L391.207 64.1387L391.22 64.1428L391.51 63.1855ZM373.785 62.1602L373.454 61.2167L373.446 61.2196L373.785 62.1602ZM369.684 64.9434L370.452 65.5835L370.458 65.5759L370.465 65.5681L369.684 64.9434ZM370.709 74.8311L370.002 75.5382L370.007 75.5434L370.013 75.5486L370.709 74.8311ZM386.236 83.4736L385.834 84.3892L385.841 84.3921L386.236 83.4736ZM397.003 88.5273L396.551 89.4194L396.556 89.4218L397.003 88.5273ZM407.184 95.1191L406.547 95.8904L406.553 95.8953L407.184 95.1191ZM414.728 104.274L413.846 104.746L413.848 104.751L414.728 104.274ZM412.164 134.377L411.352 133.793L411.351 133.795L412.164 134.377ZM397.15 146.022L396.753 145.104L396.751 145.106L397.15 146.022ZM332.596 135.927L346.219 113.808L344.516 112.759L330.893 134.878L332.596 135.927ZM344.752 114.071C348.344 116.876 351.705 119.176 354.832 120.963L355.824 119.226C352.799 117.498 349.519 115.256 345.983 112.495L344.752 114.071ZM354.838 120.966C358.02 122.756 361.12 124.084 364.138 124.939L364.683 123.014C361.841 122.209 358.887 120.949 355.818 119.223L354.838 120.966ZM364.157 124.944C367.218 125.747 370.33 126.148 373.492 126.148V124.148C370.502 124.148 367.56 123.769 364.664 123.009L364.157 124.944ZM373.492 126.148C376.59 126.148 379.286 125.799 381.559 125.076L380.953 123.17C378.929 123.814 376.45 124.148 373.492 124.148V126.148ZM381.579 125.07C383.846 124.297 385.654 123.187 386.924 121.695L385.402 120.398C384.426 121.543 382.963 122.485 380.933 123.177L381.579 125.07ZM386.922 121.698C388.255 120.143 388.921 118.299 388.921 116.213H386.921C386.921 117.838 386.415 119.216 385.404 120.396L386.922 121.698ZM388.921 116.213C388.921 113.603 387.985 111.347 386.138 109.5L384.724 110.914C386.197 112.387 386.921 114.135 386.921 116.213H388.921ZM386.138 109.5C384.376 107.738 382.05 106.189 379.194 104.836L378.338 106.643C381.048 107.927 383.165 109.356 384.724 110.914L386.138 109.5ZM379.2 104.838C376.443 103.509 373.419 102.182 370.131 100.857L369.383 102.712C372.637 104.023 375.62 105.333 378.331 106.64L379.2 104.838ZM370.131 100.857C366.633 99.4477 363.06 97.8924 359.413 96.1905L358.567 98.0029C362.245 99.7189 365.85 101.289 369.383 102.712L370.131 100.857ZM359.423 96.1952C355.829 94.4701 352.526 92.3874 349.512 89.9474L348.254 91.5019C351.392 94.0423 354.827 96.2076 358.558 97.9982L359.423 96.1952ZM349.512 89.9474C346.542 87.543 344.137 84.6205 342.294 81.1714L340.53 82.1138C342.496 85.7936 345.071 88.9257 348.254 91.5019L349.512 89.9474ZM342.297 81.1763C340.486 77.7401 339.556 73.5147 339.556 68.459H337.556C337.556 73.7549 338.53 78.3185 340.528 82.1088L342.297 81.1763ZM339.556 68.459C339.556 61.7968 341.218 56.1715 344.499 51.5314L342.866 50.3768C339.311 55.4047 337.556 61.4493 337.556 68.459H339.556ZM344.498 51.533C347.849 46.813 352.409 43.214 358.211 40.7412L357.426 38.9014C351.314 41.5067 346.45 45.3296 342.867 50.3752L344.498 51.533ZM358.214 40.7397C364.077 38.2134 370.726 36.9395 378.18 36.9395V34.9395C370.497 34.9395 363.572 36.2534 357.423 38.9029L358.214 40.7397ZM378.18 36.9395C383.609 36.9395 389.366 37.6602 395.453 39.1095L395.916 37.1639C389.699 35.6836 383.786 34.9395 378.18 34.9395V36.9395ZM395.453 39.1095C401.524 40.555 407.679 42.8222 413.917 45.9173L414.806 44.1257C408.447 40.9707 402.15 38.6481 395.916 37.1639L395.453 39.1095ZM413.461 44.5856L402.182 67.8766L403.982 68.7484L415.261 45.4573L413.461 44.5856ZM403.604 67.4592C400.011 65.2636 396.075 63.5209 391.799 62.2283L391.22 64.1428C395.343 65.3893 399.122 67.0645 402.561 69.1658L403.604 67.4592ZM391.813 62.2325C387.588 60.8906 383.676 60.208 380.084 60.208V62.208C383.426 62.208 387.131 62.8438 391.207 64.1386L391.813 62.2325ZM380.084 60.208C377.606 60.208 375.39 60.5365 373.454 61.2167L374.117 63.1036C375.794 62.5143 377.777 62.208 380.084 62.208V60.208ZM373.446 61.2196C371.549 61.9046 370.015 62.9281 368.903 64.3187L370.465 65.5681C371.305 64.5172 372.506 63.6852 374.125 63.1007L373.446 61.2196ZM368.915 64.3032C367.78 65.6654 367.219 67.2871 367.219 69.1182H369.219C369.219 67.7265 369.634 66.5651 370.452 65.5835L368.915 64.3032ZM367.219 69.1182C367.219 71.5577 368.173 73.7096 370.002 75.5382L371.416 74.1239C369.924 72.6322 369.219 70.9755 369.219 69.1182H367.219ZM370.013 75.5486C371.766 77.2501 374.055 78.794 376.854 80.1933L377.748 78.4044C375.078 77.0692 372.973 75.6347 371.406 74.1135L370.013 75.5486ZM376.854 80.1933C379.605 81.5689 382.599 82.9674 385.834 84.3892L386.639 82.5581C383.429 81.1478 380.466 79.7632 377.748 78.4044L376.854 80.1933ZM385.841 84.3921C389.336 85.897 392.906 87.5726 396.551 89.4194L397.455 87.6353C393.776 85.7711 390.168 84.0776 386.632 82.5551L385.841 84.3921ZM396.556 89.4218C400.202 91.2448 403.532 93.4013 406.547 95.8904L407.82 94.3479C404.684 91.7589 401.226 89.5208 397.45 87.6329L396.556 89.4218ZM406.553 95.8953C409.574 98.3501 412.004 101.298 413.846 104.746L415.61 103.803C413.643 100.122 411.043 96.9663 407.814 94.343L406.553 95.8953ZM413.848 104.751C415.657 108.09 416.584 112.142 416.584 116.945H418.584C418.584 111.886 417.607 107.49 415.607 103.798L413.848 104.751ZM416.584 116.945C416.584 123.342 414.835 128.945 411.352 133.793L412.976 134.96C416.72 129.75 418.584 123.732 418.584 116.945H416.584ZM411.351 133.795C407.907 138.607 403.056 142.383 396.753 145.104L397.546 146.941C404.133 144.096 409.292 140.108 412.977 134.959L411.351 133.795ZM396.751 145.106C390.504 147.823 383.199 149.197 374.811 149.197V151.197C383.415 151.197 391.002 149.788 397.548 146.939L396.751 145.106ZM374.811 149.197C367.01 149.197 359.503 147.946 352.287 145.444L351.632 147.334C359.063 149.91 366.791 151.197 374.811 151.197V149.197ZM352.287 145.444C345.066 142.941 338.425 139.331 332.358 134.613L331.13 136.192C337.368 141.044 344.203 144.758 351.632 147.334L352.287 145.444Z" fill="white" fill-opacity="0.15" mask="url(#path-1-outside-1_70_77)"/>
<path d="M70.156 116.87L76.456 98.6H83.512L71.122 129.638L61.882 110.318L52.6 129.638L40.252 98.6H47.308L53.692 116.87L61.882 97.13L70.156 116.87ZM92.5814 128.42C90.4814 128.42 88.6474 128 87.0794 127.16C85.5114 126.32 84.2934 125.158 83.4254 123.674C82.5854 122.162 82.1654 120.384 82.1654 118.34C82.1654 116.268 82.5854 114.49 83.4254 113.006C84.2934 111.494 85.5114 110.332 87.0794 109.52C88.6474 108.68 90.4954 108.26 92.6234 108.26C94.7514 108.26 96.5574 108.652 98.0414 109.436C99.5534 110.192 100.701 111.312 101.485 112.796C102.269 114.252 102.661 116.016 102.661 118.088C102.661 118.34 102.647 118.606 102.619 118.886C102.619 119.166 102.605 119.39 102.577 119.558H85.2734V116.198H97.8314L96.3614 118.13C96.4734 117.962 96.5714 117.738 96.6554 117.458C96.7674 117.15 96.8234 116.898 96.8234 116.702C96.8234 115.75 96.6414 114.938 96.2774 114.266C95.9414 113.594 95.4514 113.062 94.8074 112.67C94.1634 112.278 93.4074 112.082 92.5394 112.082C91.4754 112.082 90.5794 112.32 89.8514 112.796C89.1514 113.244 88.6054 113.93 88.2134 114.854C87.8494 115.75 87.6534 116.87 87.6254 118.214C87.6254 119.502 87.8074 120.594 88.1714 121.49C88.5634 122.386 89.1374 123.072 89.8934 123.548C90.6494 124.024 91.5594 124.262 92.6234 124.262C93.8274 124.262 94.8494 124.038 95.6894 123.59C96.5574 123.114 97.2714 122.414 97.8314 121.49L102.577 122.96C101.569 124.78 100.225 126.152 98.5454 127.076C96.8934 127.972 94.9054 128.42 92.5814 128.42ZM107.677 98.6H113.473L109.147 108.974H105.325L107.677 98.6ZM116.768 108.68H122.606L127.352 120.314L132.098 108.68H137.936L127.352 130.016L116.768 108.68ZM149.459 128.42C147.359 128.42 145.525 128 143.957 127.16C142.389 126.32 141.171 125.158 140.303 123.674C139.463 122.162 139.043 120.384 139.043 118.34C139.043 116.268 139.463 114.49 140.303 113.006C141.171 111.494 142.389 110.332 143.957 109.52C145.525 108.68 147.373 108.26 149.501 108.26C151.629 108.26 153.435 108.652 154.919 109.436C156.431 110.192 157.579 111.312 158.363 112.796C159.147 114.252 159.539 116.016 159.539 118.088C159.539 118.34 159.525 118.606 159.497 118.886C159.497 119.166 159.483 119.39 159.455 119.558H142.151V116.198H154.709L153.239 118.13C153.351 117.962 153.449 117.738 153.533 117.458C153.645 117.15 153.701 116.898 153.701 116.702C153.701 115.75 153.519 114.938 153.155 114.266C152.819 113.594 152.329 113.062 151.685 112.67C151.041 112.278 150.285 112.082 149.417 112.082C148.353 112.082 147.457 112.32 146.729 112.796C146.029 113.244 145.483 113.93 145.091 114.854C144.727 115.75 144.531 116.87 144.503 118.214C144.503 119.502 144.685 120.594 145.049 121.49C145.441 122.386 146.015 123.072 146.771 123.548C147.527 124.024 148.437 124.262 149.501 124.262C150.705 124.262 151.727 124.038 152.567 123.59C153.435 123.114 154.149 122.414 154.709 121.49L159.455 122.96C158.447 124.78 157.103 126.152 155.423 127.076C153.771 127.972 151.783 128.42 149.459 128.42ZM184.045 111.494L182.155 128H175.897L180.265 97.13L192.571 116.114L204.877 97.13L209.245 128H202.987L201.097 111.494L192.571 125.27L184.045 111.494ZM212.572 118.34C212.572 116.324 213.034 114.56 213.958 113.048C214.91 111.536 216.184 110.36 217.78 109.52C219.404 108.68 221.238 108.26 223.282 108.26C225.326 108.26 227.146 108.68 228.742 109.52C230.366 110.36 231.64 111.536 232.564 113.048C233.516 114.56 233.992 116.324 233.992 118.34C233.992 120.328 233.516 122.092 232.564 123.632C231.64 125.144 230.366 126.32 228.742 127.16C227.146 128 225.326 128.42 223.282 128.42C221.238 128.42 219.404 128 217.78 127.16C216.184 126.32 214.91 125.144 213.958 123.632C213.034 122.092 212.572 120.328 212.572 118.34ZM218.116 118.34C218.116 119.432 218.34 120.398 218.788 121.238C219.264 122.05 219.894 122.694 220.678 123.17C221.462 123.618 222.33 123.842 223.282 123.842C224.234 123.842 225.102 123.618 225.886 123.17C226.67 122.694 227.286 122.05 227.734 121.238C228.21 120.398 228.448 119.432 228.448 118.34C228.448 117.248 228.21 116.282 227.734 115.442C227.286 114.602 226.67 113.958 225.886 113.51C225.102 113.062 224.234 112.838 223.282 112.838C222.33 112.838 221.462 113.062 220.678 113.51C219.894 113.958 219.264 114.602 218.788 115.442C218.34 116.282 218.116 117.248 218.116 118.34ZM243.827 108.68V128H238.493V108.68H243.827ZM249.497 114.35C249.133 114.014 248.755 113.762 248.363 113.594C247.999 113.398 247.537 113.3 246.977 113.3C246.305 113.3 245.731 113.482 245.255 113.846C244.779 114.21 244.415 114.728 244.163 115.4C243.939 116.044 243.827 116.828 243.827 117.752L242.315 116.24C242.315 114.7 242.609 113.342 243.197 112.166C243.785 110.962 244.555 110.01 245.507 109.31C246.459 108.582 247.439 108.218 248.447 108.218C249.147 108.218 249.805 108.344 250.421 108.596C251.065 108.848 251.583 109.226 251.975 109.73L249.497 114.35ZM263.777 128.42C261.677 128.42 259.843 128 258.275 127.16C256.707 126.32 255.489 125.158 254.621 123.674C253.781 122.162 253.361 120.384 253.361 118.34C253.361 116.268 253.781 114.49 254.621 113.006C255.489 111.494 256.707 110.332 258.275 109.52C259.843 108.68 261.691 108.26 263.819 108.26C265.947 108.26 267.753 108.652 269.237 109.436C270.749 110.192 271.897 111.312 272.681 112.796C273.465 114.252 273.857 116.016 273.857 118.088C273.857 118.34 273.843 118.606 273.815 118.886C273.815 119.166 273.801 119.39 273.773 119.558H256.469V116.198H269.027L267.557 118.13C267.669 117.962 267.767 117.738 267.851 117.458C267.963 117.15 268.019 116.898 268.019 116.702C268.019 115.75 267.837 114.938 267.473 114.266C267.137 113.594 266.647 113.062 266.003 112.67C265.359 112.278 264.603 112.082 263.735 112.082C262.671 112.082 261.775 112.32 261.047 112.796C260.347 113.244 259.801 113.93 259.409 114.854C259.045 115.75 258.849 116.87 258.821 118.214C258.821 119.502 259.003 120.594 259.367 121.49C259.759 122.386 260.333 123.072 261.089 123.548C261.845 124.024 262.755 124.262 263.819 124.262C265.023 124.262 266.045 124.038 266.885 123.59C267.753 123.114 268.467 122.414 269.027 121.49L273.773 122.96C272.765 124.78 271.421 126.152 269.741 127.076C268.089 127.972 266.101 128.42 263.777 128.42ZM288.956 104.018V98.6H310.796V104.018H302.858V128H296.852V104.018H288.956ZM319.584 95.24V128H314.124V95.24H319.584ZM326.598 116.24C326.598 114.952 326.346 113.972 325.842 113.3C325.366 112.628 324.554 112.292 323.406 112.292C322.65 112.292 321.978 112.46 321.39 112.796C320.802 113.104 320.354 113.552 320.046 114.14C319.738 114.728 319.584 115.428 319.584 116.24H318.492C318.492 114.7 318.744 113.314 319.248 112.082C319.78 110.85 320.564 109.87 321.6 109.142C322.636 108.414 323.91 108.05 325.422 108.05C326.934 108.05 328.18 108.33 329.16 108.89C330.14 109.45 330.868 110.29 331.344 111.41C331.82 112.502 332.058 113.846 332.058 115.442V128H326.598V116.24ZM346.955 128.42C344.855 128.42 343.021 128 341.453 127.16C339.885 126.32 338.667 125.158 337.799 123.674C336.959 122.162 336.539 120.384 336.539 118.34C336.539 116.268 336.959 114.49 337.799 113.006C338.667 111.494 339.885 110.332 341.453 109.52C343.021 108.68 344.869 108.26 346.997 108.26C349.125 108.26 350.931 108.652 352.415 109.436C353.927 110.192 355.075 111.312 355.859 112.796C356.643 114.252 357.035 116.016 357.035 118.088C357.035 118.34 357.021 118.606 356.993 118.886C356.993 119.166 356.979 119.39 356.951 119.558H339.647V116.198H352.205L350.735 118.13C350.847 117.962 350.945 117.738 351.029 117.458C351.141 117.15 351.197 116.898 351.197 116.702C351.197 115.75 351.015 114.938 350.651 114.266C350.315 113.594 349.825 113.062 349.181 112.67C348.537 112.278 347.781 112.082 346.913 112.082C345.849 112.082 344.953 112.32 344.225 112.796C343.525 113.244 342.979 113.93 342.587 114.854C342.223 115.75 342.027 116.87 341.999 118.214C341.999 119.502 342.181 120.594 342.545 121.49C342.937 122.386 343.511 123.072 344.267 123.548C345.023 124.024 345.933 124.262 346.997 124.262C348.201 124.262 349.223 124.038 350.063 123.59C350.931 123.114 351.645 122.414 352.205 121.49L356.951 122.96C355.943 124.78 354.599 126.152 352.919 127.076C351.267 127.972 349.279 128.42 346.955 128.42ZM374.032 116.24C374.032 114.952 373.78 113.972 373.276 113.3C372.772 112.628 371.96 112.292 370.84 112.292C370.084 112.292 369.412 112.46 368.824 112.796C368.236 113.104 367.788 113.552 367.48 114.14C367.172 114.728 367.018 115.428 367.018 116.24V128H361.558V108.68H367.018V111.62C367.606 110.528 368.376 109.702 369.328 109.142C370.308 108.554 371.484 108.26 372.856 108.26C375.152 108.26 376.86 108.918 377.98 110.234C379.1 111.522 379.66 113.328 379.66 115.652V128H374.032V116.24ZM396.603 128L409.959 114.056C410.715 113.244 411.359 112.488 411.891 111.788C412.423 111.088 412.829 110.388 413.109 109.688C413.389 108.988 413.529 108.26 413.529 107.504C413.529 106.972 413.431 106.454 413.235 105.95C413.039 105.446 412.745 104.998 412.353 104.606C411.961 104.214 411.485 103.906 410.925 103.682C410.365 103.43 409.721 103.304 408.993 103.304C407.957 103.304 407.061 103.556 406.305 104.06C405.577 104.536 405.003 105.222 404.583 106.118C404.191 107.014 403.995 108.05 403.995 109.226H398.115C398.115 107.126 398.535 105.236 399.375 103.556C400.215 101.876 401.447 100.546 403.071 99.566C404.723 98.558 406.739 98.054 409.119 98.054C410.883 98.054 412.423 98.334 413.739 98.894C415.083 99.426 416.189 100.14 417.057 101.036C417.953 101.904 418.611 102.87 419.031 103.934C419.479 104.998 419.703 106.062 419.703 107.126C419.703 108.694 419.325 110.164 418.569 111.536C417.813 112.908 416.819 114.154 415.587 115.274L407.943 122.498H420.249V128H396.603ZM446.957 118.508C446.957 120.244 446.635 121.742 445.991 123.002C445.347 124.262 444.479 125.298 443.387 126.11C442.295 126.922 441.077 127.524 439.733 127.916C438.389 128.308 437.003 128.504 435.575 128.504C433.783 128.504 432.173 128.294 430.745 127.874C429.345 127.454 428.113 126.908 427.049 126.236C425.985 125.536 425.047 124.78 424.235 123.968L427.049 119.306C427.749 120.006 428.505 120.636 429.317 121.196C430.157 121.756 431.025 122.204 431.921 122.54C432.817 122.848 433.671 123.002 434.483 123.002C435.743 123.002 436.807 122.806 437.675 122.414C438.571 122.022 439.257 121.462 439.733 120.734C440.209 119.978 440.447 119.054 440.447 117.962C440.447 116.898 440.167 116.002 439.607 115.274C439.075 114.546 438.347 114 437.423 113.636C436.527 113.244 435.547 113.048 434.483 113.048C433.699 113.048 432.873 113.118 432.005 113.258C431.137 113.37 430.241 113.58 429.317 113.888C428.421 114.168 427.469 114.588 426.461 115.148L430.493 98.6H446.495V103.808H434.945L433.181 109.856C433.909 109.464 434.679 109.198 435.491 109.058C436.331 108.89 437.185 108.806 438.053 108.806C439.649 108.806 441.119 109.198 442.463 109.982C443.807 110.766 444.885 111.886 445.697 113.342C446.537 114.77 446.957 116.492 446.957 118.508ZM449.734 122.582L466.576 98.6H470.65V128H464.476V120.608L464.98 120.146V108.176L458.05 118.088H468.55L469.264 117.458H475.27V122.582H449.734ZM480.021 119.516V114.266H502.113V119.516H480.021ZM488.253 105.824H493.881V127.958H488.253V105.824ZM57.472 170.08V165.292H71.962C72.046 167.532 71.78 169.646 71.164 171.634C70.576 173.622 69.638 175.386 68.35 176.926C67.09 178.438 65.522 179.628 63.646 180.496C61.77 181.364 59.628 181.798 57.22 181.798C54.952 181.798 52.852 181.42 50.92 180.664C49.016 179.908 47.35 178.844 45.922 177.472C44.522 176.1 43.43 174.462 42.646 172.558C41.89 170.654 41.512 168.568 41.512 166.3C41.512 164.032 41.904 161.96 42.688 160.084C43.5 158.18 44.62 156.556 46.048 155.212C47.476 153.868 49.156 152.832 51.088 152.104C53.02 151.376 55.12 151.012 57.388 151.012C59.404 151.012 61.21 151.292 62.806 151.852C64.43 152.412 65.858 153.196 67.09 154.204C68.35 155.184 69.428 156.36 70.324 157.732L65.2 160.714C64.472 159.426 63.45 158.39 62.134 157.606C60.846 156.794 59.264 156.388 57.388 156.388C55.624 156.388 54.014 156.794 52.558 157.606C51.102 158.39 49.94 159.524 49.072 161.008C48.232 162.492 47.812 164.256 47.812 166.3C47.812 168.316 48.232 170.094 49.072 171.634C49.912 173.146 51.046 174.322 52.474 175.162C53.93 176.002 55.568 176.422 57.388 176.422C58.592 176.422 59.67 176.268 60.622 175.96C61.574 175.624 62.386 175.162 63.058 174.574C63.758 173.986 64.346 173.314 64.822 172.558C65.298 171.802 65.662 170.976 65.914 170.08H57.472ZM76.7818 148.24H82.2418V181H76.7818V148.24ZM86.728 171.34C86.728 169.324 87.19 167.56 88.114 166.048C89.066 164.536 90.34 163.36 91.936 162.52C93.56 161.68 95.394 161.26 97.438 161.26C99.482 161.26 101.302 161.68 102.898 162.52C104.522 163.36 105.796 164.536 106.72 166.048C107.672 167.56 108.148 169.324 108.148 171.34C108.148 173.328 107.672 175.092 106.72 176.632C105.796 178.144 104.522 179.32 102.898 180.16C101.302 181 99.482 181.42 97.438 181.42C95.394 181.42 93.56 181 91.936 180.16C90.34 179.32 89.066 178.144 88.114 176.632C87.19 175.092 86.728 173.328 86.728 171.34ZM92.272 171.34C92.272 172.432 92.496 173.398 92.944 174.238C93.42 175.05 94.05 175.694 94.834 176.17C95.618 176.618 96.486 176.842 97.438 176.842C98.39 176.842 99.258 176.618 100.042 176.17C100.826 175.694 101.442 175.05 101.89 174.238C102.366 173.398 102.604 172.432 102.604 171.34C102.604 170.248 102.366 169.282 101.89 168.442C101.442 167.602 100.826 166.958 100.042 166.51C99.258 166.062 98.39 165.838 97.438 165.838C96.486 165.838 95.618 166.062 94.834 166.51C94.05 166.958 93.42 167.602 92.944 168.442C92.496 169.282 92.272 170.248 92.272 171.34ZM117.983 148.24V181H112.523V148.24H117.983ZM133.859 171.34C133.859 173.468 133.425 175.288 132.557 176.8C131.689 178.312 130.541 179.46 129.113 180.244C127.713 181.028 126.201 181.42 124.577 181.42C122.981 181.42 121.553 181.014 120.293 180.202C119.061 179.39 118.081 178.228 117.353 176.716C116.625 175.204 116.261 173.412 116.261 171.34C116.261 169.24 116.625 167.448 117.353 165.964C118.081 164.452 119.061 163.29 120.293 162.478C121.553 161.666 122.981 161.26 124.577 161.26C126.201 161.26 127.713 161.652 129.113 162.436C130.541 163.22 131.689 164.368 132.557 165.88C133.425 167.364 133.859 169.184 133.859 171.34ZM128.231 171.34C128.231 170.192 127.993 169.198 127.517 168.358C127.041 167.518 126.397 166.874 125.585 166.426C124.801 165.978 123.933 165.754 122.981 165.754C122.169 165.754 121.371 165.978 120.587 166.426C119.831 166.846 119.201 167.476 118.697 168.316C118.221 169.156 117.983 170.164 117.983 171.34C117.983 172.516 118.221 173.524 118.697 174.364C119.201 175.204 119.831 175.848 120.587 176.296C121.371 176.716 122.169 176.926 122.981 176.926C123.933 176.926 124.801 176.702 125.585 176.254C126.397 175.806 127.041 175.162 127.517 174.322C127.993 173.482 128.231 172.488 128.231 171.34ZM142.199 174.994C142.199 175.554 142.339 176.044 142.619 176.464C142.899 176.856 143.277 177.164 143.753 177.388C144.257 177.584 144.803 177.682 145.391 177.682C146.231 177.682 146.987 177.514 147.659 177.178C148.331 176.814 148.877 176.31 149.297 175.666C149.717 174.994 149.927 174.196 149.927 173.272L150.599 175.792C150.599 177.024 150.249 178.06 149.549 178.9C148.877 179.74 147.995 180.37 146.903 180.79C145.839 181.21 144.719 181.42 143.543 181.42C142.339 181.42 141.219 181.182 140.183 180.706C139.147 180.23 138.307 179.544 137.663 178.648C137.047 177.724 136.739 176.604 136.739 175.288C136.739 173.412 137.397 171.928 138.713 170.836C140.029 169.744 141.891 169.198 144.299 169.198C145.531 169.198 146.609 169.324 147.533 169.576C148.485 169.828 149.283 170.136 149.927 170.5C150.571 170.864 151.033 171.214 151.313 171.55V174.07C150.557 173.51 149.703 173.09 148.751 172.81C147.827 172.53 146.847 172.39 145.811 172.39C144.971 172.39 144.285 172.502 143.753 172.726C143.221 172.922 142.829 173.216 142.577 173.608C142.325 173.972 142.199 174.434 142.199 174.994ZM140.099 167.14L138.083 163.444C139.091 162.912 140.323 162.408 141.779 161.932C143.235 161.428 144.859 161.176 146.651 161.176C148.303 161.176 149.773 161.414 151.061 161.89C152.349 162.366 153.357 163.066 154.085 163.99C154.813 164.886 155.177 165.992 155.177 167.308V181H149.927V168.442C149.927 167.91 149.843 167.462 149.675 167.098C149.507 166.706 149.241 166.384 148.877 166.132C148.541 165.88 148.135 165.698 147.659 165.586C147.183 165.474 146.651 165.418 146.063 165.418C145.167 165.418 144.313 165.516 143.501 165.712C142.689 165.908 141.989 166.146 141.401 166.426C140.813 166.706 140.379 166.944 140.099 167.14ZM160.657 148.24H166.117V181H160.657V148.24ZM185.421 151.6H191.427V181H185.421V151.6ZM189.075 156.682V151.6H194.913C197.237 151.6 199.211 151.978 200.835 152.734C202.487 153.49 203.747 154.568 204.615 155.968C205.483 157.368 205.917 159.034 205.917 160.966C205.917 162.87 205.483 164.536 204.615 165.964C203.747 167.364 202.487 168.442 200.835 169.198C199.211 169.954 197.237 170.332 194.913 170.332H189.075V165.25H194.913C196.509 165.25 197.769 164.886 198.693 164.158C199.617 163.43 200.079 162.366 200.079 160.966C200.079 159.538 199.617 158.474 198.693 157.774C197.769 157.046 196.509 156.682 194.913 156.682H189.075ZM213.072 174.994C213.072 175.554 213.212 176.044 213.492 176.464C213.772 176.856 214.15 177.164 214.626 177.388C215.13 177.584 215.676 177.682 216.264 177.682C217.104 177.682 217.86 177.514 218.532 177.178C219.204 176.814 219.75 176.31 220.17 175.666C220.59 174.994 220.8 174.196 220.8 173.272L221.472 175.792C221.472 177.024 221.122 178.06 220.422 178.9C219.75 179.74 218.868 180.37 217.776 180.79C216.712 181.21 215.592 181.42 214.416 181.42C213.212 181.42 212.092 181.182 211.056 180.706C210.02 180.23 209.18 179.544 208.536 178.648C207.92 177.724 207.612 176.604 207.612 175.288C207.612 173.412 208.27 171.928 209.586 170.836C210.902 169.744 212.764 169.198 215.172 169.198C216.404 169.198 217.482 169.324 218.406 169.576C219.358 169.828 220.156 170.136 220.8 170.5C221.444 170.864 221.906 171.214 222.186 171.55V174.07C221.43 173.51 220.576 173.09 219.624 172.81C218.7 172.53 217.72 172.39 216.684 172.39C215.844 172.39 215.158 172.502 214.626 172.726C214.094 172.922 213.702 173.216 213.45 173.608C213.198 173.972 213.072 174.434 213.072 174.994ZM210.972 167.14L208.956 163.444C209.964 162.912 211.196 162.408 212.652 161.932C214.108 161.428 215.732 161.176 217.524 161.176C219.176 161.176 220.646 161.414 221.934 161.89C223.222 162.366 224.23 163.066 224.958 163.99C225.686 164.886 226.05 165.992 226.05 167.308V181H220.8V168.442C220.8 167.91 220.716 167.462 220.548 167.098C220.38 166.706 220.114 166.384 219.75 166.132C219.414 165.88 219.008 165.698 218.532 165.586C218.056 165.474 217.524 165.418 216.936 165.418C216.04 165.418 215.186 165.516 214.374 165.712C213.562 165.908 212.862 166.146 212.274 166.426C211.686 166.706 211.252 166.944 210.972 167.14ZM236.864 161.68V181H231.53V161.68H236.864ZM242.534 167.35C242.17 167.014 241.792 166.762 241.4 166.594C241.036 166.398 240.574 166.3 240.014 166.3C239.342 166.3 238.768 166.482 238.292 166.846C237.816 167.21 237.452 167.728 237.2 168.4C236.976 169.044 236.864 169.828 236.864 170.752L235.352 169.24C235.352 167.7 235.646 166.342 236.234 165.166C236.822 163.962 237.592 163.01 238.544 162.31C239.496 161.582 240.476 161.218 241.484 161.218C242.184 161.218 242.842 161.344 243.458 161.596C244.102 161.848 244.62 162.226 245.012 162.73L242.534 167.35ZM245.838 161.68H257.766V166.258H245.838V161.68ZM249.156 154.96H254.406V181H249.156V154.96ZM273.555 169.24C273.555 167.952 273.303 166.972 272.799 166.3C272.295 165.628 271.483 165.292 270.363 165.292C269.607 165.292 268.935 165.46 268.347 165.796C267.759 166.104 267.311 166.552 267.003 167.14C266.695 167.728 266.541 168.428 266.541 169.24V181H261.081V161.68H266.541V164.62C267.129 163.528 267.899 162.702 268.851 162.142C269.831 161.554 271.007 161.26 272.379 161.26C274.675 161.26 276.383 161.918 277.503 163.234C278.623 164.522 279.183 166.328 279.183 168.652V181H273.555V169.24ZM294.076 181.42C291.976 181.42 290.142 181 288.574 180.16C287.006 179.32 285.788 178.158 284.92 176.674C284.08 175.162 283.66 173.384 283.66 171.34C283.66 169.268 284.08 167.49 284.92 166.006C285.788 164.494 287.006 163.332 288.574 162.52C290.142 161.68 291.99 161.26 294.118 161.26C296.246 161.26 298.052 161.652 299.536 162.436C301.048 163.192 302.196 164.312 302.98 165.796C303.764 167.252 304.156 169.016 304.156 171.088C304.156 171.34 304.142 171.606 304.114 171.886C304.114 172.166 304.1 172.39 304.072 172.558H286.768V169.198H299.326L297.856 171.13C297.968 170.962 298.066 170.738 298.15 170.458C298.262 170.15 298.318 169.898 298.318 169.702C298.318 168.75 298.136 167.938 297.772 167.266C297.436 166.594 296.946 166.062 296.302 165.67C295.658 165.278 294.902 165.082 294.034 165.082C292.97 165.082 292.074 165.32 291.346 165.796C290.646 166.244 290.1 166.93 289.708 167.854C289.344 168.75 289.148 169.87 289.12 171.214C289.12 172.502 289.302 173.594 289.666 174.49C290.058 175.386 290.632 176.072 291.388 176.548C292.144 177.024 293.054 177.262 294.118 177.262C295.322 177.262 296.344 177.038 297.184 176.59C298.052 176.114 298.766 175.414 299.326 174.49L304.072 175.96C303.064 177.78 301.72 179.152 300.04 180.076C298.388 180.972 296.4 181.42 294.076 181.42ZM314.013 161.68V181H308.679V161.68H314.013ZM319.683 167.35C319.319 167.014 318.941 166.762 318.549 166.594C318.185 166.398 317.723 166.3 317.163 166.3C316.491 166.3 315.917 166.482 315.441 166.846C314.965 167.21 314.601 167.728 314.349 168.4C314.125 169.044 314.013 169.828 314.013 170.752L312.501 169.24C312.501 167.7 312.795 166.342 313.383 165.166C313.971 163.962 314.741 163.01 315.693 162.31C316.645 161.582 317.625 161.218 318.633 161.218C319.333 161.218 319.991 161.344 320.607 161.596C321.251 161.848 321.769 162.226 322.161 162.73L319.683 167.35ZM326.43 174.322C327.242 175.078 327.998 175.694 328.698 176.17C329.398 176.618 330.056 176.954 330.672 177.178C331.316 177.402 331.918 177.514 332.478 177.514C333.206 177.514 333.766 177.36 334.158 177.052C334.55 176.716 334.746 176.268 334.746 175.708C334.746 175.204 334.578 174.784 334.242 174.448C333.934 174.084 333.472 173.762 332.856 173.482C332.24 173.202 331.456 172.908 330.504 172.6C329.608 172.264 328.74 171.872 327.9 171.424C327.06 170.948 326.36 170.332 325.8 169.576C325.268 168.792 325.002 167.798 325.002 166.594C325.002 165.446 325.31 164.48 325.926 163.696C326.542 162.884 327.368 162.282 328.404 161.89C329.468 161.47 330.644 161.26 331.932 161.26C333.024 161.26 334.046 161.4 334.998 161.68C335.95 161.96 336.832 162.338 337.644 162.814C338.456 163.262 339.17 163.794 339.786 164.41L337.392 167.77C336.692 167.014 335.852 166.398 334.872 165.922C333.92 165.446 332.982 165.208 332.058 165.208C331.442 165.208 330.952 165.334 330.588 165.586C330.252 165.81 330.084 166.16 330.084 166.636C330.084 167.056 330.252 167.434 330.588 167.77C330.952 168.078 331.456 168.358 332.1 168.61C332.772 168.862 333.528 169.17 334.368 169.534C335.404 169.926 336.356 170.374 337.224 170.878C338.12 171.354 338.834 171.956 339.366 172.684C339.898 173.412 340.164 174.364 340.164 175.54C340.164 177.472 339.534 178.984 338.274 180.076C337.014 181.14 335.278 181.672 333.066 181.672C331.694 181.672 330.434 181.49 329.286 181.126C328.166 180.762 327.144 180.286 326.22 179.698C325.324 179.082 324.512 178.424 323.784 177.724L326.43 174.322Z" fill="white"/>
</svg>
