<svg width="42" height="42" viewBox="0 0 42 42" fill="none" xmlns="http://www.w3.org/2000/svg">
<g id="logos:facebook" clip-path="url(#clip0_1_47)">
<path id="Vector" d="M42 21C42 9.40209 32.5979 0 21 0C9.40209 0 0 9.40193 0 21C0 31.4816 7.67944 40.1696 17.7188 41.7449V27.0703H12.3867V21H17.7188V16.3734C17.7188 11.1103 20.854 8.20312 25.6507 8.20312C27.9484 8.20312 30.3516 8.61328 30.3516 8.61328V13.7812H27.7036C25.0947 13.7812 24.2812 15.4001 24.2812 17.0609V21H30.1055L29.1744 27.0703H24.2812V41.7449C34.3206 40.1696 42 31.4818 42 21Z" fill="#1877F2"/>
<path id="Vector_2" d="M29.1744 27.0703L30.1055 21H24.2812V17.0609C24.2812 15.3999 25.0948 13.7812 27.7036 13.7812H30.3516V8.61328C30.3516 8.61328 27.9484 8.20312 25.6507 8.20312C20.854 8.20312 17.7188 11.1103 17.7188 16.3734V21H12.3867V27.0703H17.7188V41.7449C18.8042 41.915 19.9013 42.0003 21 42C22.0987 42.0003 23.1958 41.915 24.2812 41.7449V27.0703H29.1744Z" fill="white"/>
</g>
<defs>
<clipPath id="clip0_1_47">
<rect width="42" height="42" fill="white"/>
</clipPath>
</defs>
</svg>
