<svg width="42" height="42" viewBox="0 0 42 42" fill="none" xmlns="http://www.w3.org/2000/svg">
<g id="devicon:google" clip-path="url(#clip0_1_41)">
<path id="Vector" d="M14.6311 1.3814C10.4346 2.83719 6.81562 5.60032 4.30562 9.26494C1.79562 12.9296 0.526938 17.3025 0.685917 21.7414C0.844897 26.1804 2.42316 30.4514 5.18889 33.927C7.95462 37.4027 11.762 39.8999 16.0519 41.0517C19.5297 41.9491 23.1735 41.9885 26.67 41.1666C29.8374 40.4551 32.7658 38.9332 35.1684 36.75C37.669 34.4083 39.4841 31.4294 40.4184 28.1334C41.4337 24.5492 41.6144 20.78 40.9467 17.115H21.4167V25.2164H32.7272C32.5011 26.5085 32.0167 27.7417 31.303 28.8423C30.5892 29.9428 29.6607 30.8881 28.5731 31.6214C27.1922 32.5353 25.6352 33.1501 24.0023 33.4261C22.3648 33.7306 20.6852 33.7306 19.0477 33.4261C17.3878 33.0833 15.8177 32.3983 14.4375 31.4147C12.2199 29.8449 10.5547 27.6147 9.67968 25.0425C8.7901 22.422 8.7901 19.5812 9.67968 16.9608C10.3026 15.124 11.3322 13.4516 12.6919 12.0684C14.2478 10.4565 16.2177 9.3043 18.3854 8.73821C20.553 8.17213 22.8347 8.21405 24.9802 8.85937C26.6562 9.37362 28.1889 10.2725 29.4558 11.4844C30.7311 10.2156 32.0042 8.94359 33.2752 7.66827C33.9314 6.98249 34.6467 6.32952 35.2931 5.62734C33.3589 3.82763 31.0887 2.42715 28.6125 1.50609C24.1031 -0.13129 19.169 -0.175292 14.6311 1.3814Z" fill="white"/>
<path id="Vector_2" d="M14.6311 1.38141C19.1686 -0.176343 24.1027 -0.133498 28.6125 1.50281C31.0892 2.43013 33.3584 3.83736 35.2899 5.64375C34.6336 6.34594 33.9413 7.00219 33.2719 7.68469C31.9988 8.95563 30.7267 10.2222 29.4558 11.4844C28.1889 10.2725 26.6562 9.37362 24.9802 8.85938C22.8355 8.21179 20.5538 8.16745 18.3856 8.73122C16.2173 9.29499 14.2463 10.4451 12.6886 12.0553C11.329 13.4385 10.2993 15.1109 9.67642 16.9477L2.87439 11.6812C5.3091 6.85309 9.52466 3.15992 14.6311 1.38141Z" fill="#E33629"/>
<path id="Vector_3" d="M1.06968 16.8984C1.43501 15.0864 2.042 13.3317 2.87436 11.6812L9.6764 16.9608C8.78681 19.5812 8.78681 22.422 9.6764 25.0425C7.41015 26.7925 5.1428 28.5512 2.87436 30.3187C0.791265 26.1723 0.155956 21.4479 1.06968 16.8984Z" fill="#F8BD00"/>
<path id="Vector_4" d="M21.4167 17.1117H40.9467C41.6144 20.7767 41.4337 24.5459 40.4184 28.1302C39.4841 31.4261 37.669 34.4051 35.1684 36.7467C32.9733 35.0339 30.7683 33.3342 28.5731 31.6214C29.6614 30.8873 30.5903 29.9411 31.3041 28.8393C32.0179 27.7376 32.502 26.5031 32.7272 25.2099H21.4167C21.4134 22.5127 21.4167 19.8122 21.4167 17.1117Z" fill="#587DBD"/>
<path id="Vector_5" d="M2.87109 30.3187C5.13953 28.5687 7.40687 26.81 9.67312 25.0425C10.5499 27.6156 12.2174 29.8459 14.4375 31.4147C15.822 32.3937 17.3955 33.0732 19.0575 33.4097C20.695 33.7142 22.3747 33.7142 24.0122 33.4097C25.645 33.1337 27.202 32.5189 28.583 31.605C30.7781 33.3178 32.9831 35.0175 35.1783 36.7303C32.776 38.9147 29.8476 40.4377 26.6798 41.1502C23.1834 41.9721 19.5396 41.9327 16.0617 41.0353C13.3111 40.3009 10.7417 39.0062 8.51484 37.2323C6.15801 35.3608 4.23293 33.0025 2.87109 30.3187Z" fill="#319F43"/>
</g>
<defs>
<clipPath id="clip0_1_41">
<rect width="42" height="42" fill="white"/>
</clipPath>
</defs>
</svg>
