<svg xmlns="http://www.w3.org/2000/svg" viewBox="0 0 48 48" id="Error"><path d="M21 23.5h-3c-.1 0-.3-.1-.4-.2s-.1-.3-.1-.4l.8-4c.1-.3.3-.5.6-.4.3.1.5.3.4.6l-.6 3.4H21c.3 0 .5.2.5.5s-.2.5-.5.5z" fill="#97a4a9" class="color000000 svgShape"></path><path d="M20 24.5c-.3 0-.5-.2-.5-.5v-3c0-.3.2-.5.5-.5s.5.2.5.5v3c0 .3-.2.5-.5.5zm11-1h-3c-.1 0-.3-.1-.4-.2s-.1-.3-.1-.4l.8-4c.1-.3.3-.5.6-.4.3.1.5.3.4.6l-.6 3.4H31c.3 0 .5.2.5.5s-.2.5-.5.5z" fill="#97a4a9" class="color000000 svgShape"></path><path d="M30 24.5c-.3 0-.5-.2-.5-.5v-3c0-.3.2-.5.5-.5s.5.2.5.5v3c0 .3-.2.5-.5.5z" fill="#97a4a9" class="color000000 svgShape"></path><path d="M33 29.5H16c-.8 0-1.5-.7-1.5-1.5V16c0-.8.7-1.5 1.5-1.5h17c.8 0 1.5.7 1.5 1.5v12c0 .8-.7 1.5-1.5 1.5zm-17-14c-.3 0-.5.2-.5.5v12c0 .3.2.5.5.5h17c.3 0 .5-.2.5-.5V16c0-.3-.2-.5-.5-.5H16zm15 18H18c-.3 0-.5-.2-.5-.5s.2-.5.5-.5h13c.3 0 .5.2.5.5s-.2.5-.5.5z" fill="#97a4a9" class="color000000 svgShape"></path><path d="M34 26.5H15c-.3 0-.5-.2-.5-.5s.2-.5.5-.5h19c.3 0 .5.2.5.5s-.2.5-.5.5zm-7 7h-5c-.3 0-.5-.2-.5-.5v-4c0-.3.2-.5.5-.5h5c.3 0 .5.2.5.5v4c0 .3-.2.5-.5.5zm-4.5-1h4v-3h-4v3zm-8.5-2h-1c-.3 0-.5-.2-.5-.5s.2-.5.5-.5h1c.3 0 .5.2.5.5s-.2.5-.5.5zm-5 0H8c-.3 0-.5-.2-.5-.5s.2-.5.5-.5h1c.3 0 .5.2.5.5s-.2.5-.5.5zm2-2c-.3 0-.5-.2-.5-.5v-1c0-.3.2-.5.5-.5s.5.2.5.5v1c0 .3-.2.5-.5.5zm0 5c-.3 0-.5-.2-.5-.5v-1c0-.3.2-.5.5-.5s.5.2.5.5v1c0 .3-.2.5-.5.5zm-1.4-4.4c-.1 0-.3 0-.4-.1l-.7-.7c-.2-.2-.2-.5 0-.7s.5-.2.7 0l.7.7c.2.2.2.5 0 .7-.1 0-.2.1-.3.1zm3.5 3.5c-.1 0-.3 0-.4-.1l-.7-.7c-.2-.2-.2-.5 0-.7s.5-.2.7 0l.7.7c.2.2.2.5 0 .7 0 .1-.2.1-.3.1zm-.7-3.5c-.1 0-.3 0-.4-.1-.2-.2-.2-.5 0-.7l.7-.7c.2-.2.5-.2.7 0s.2.5 0 .7l-.7.7s-.2.1-.3.1zm-3.5 3.5c-.1 0-.3 0-.4-.1-.2-.2-.2-.5 0-.7l.7-.7c.2-.2.5-.2.7 0s.2.5 0 .7l-.7.7c-.1.1-.2.1-.3.1z" fill="#97a4a9" class="color000000 svgShape"></path><circle cx="11" cy="30" r=".5" fill="#97a4a9" class="color000000 svgShape"></circle><path d="M11 32.5c-1.4 0-2.5-1.1-2.5-2.5 0-.7.3-1.3.7-1.8.5-.5 1.1-.7 1.8-.7 1.4 0 2.5 1.1 2.5 2.5s-1.1 2.5-2.5 2.5zm0-4c-.4 0-.8.2-1.1.4-.3.3-.4.7-.4 1.1 0 .8.7 1.5 1.5 1.5s1.5-.7 1.5-1.5-.7-1.5-1.5-1.5zm2-4h-1c-.3 0-.5-.2-.5-.5s.2-.5.5-.5h1c.3 0 .5.2.5.5s-.2.5-.5.5zm.6-1.4c-.1 0-.3 0-.4-.1l-.7-.7c-.2-.2-.2-.5 0-.7s.5-.2.7 0l.7.7c.2.2.2.5 0 .7-.1 0-.2.1-.3.1zm-.7 3.5c-.1 0-.3 0-.4-.1-.2-.2-.2-.5 0-.7l.7-.7c.2-.2.5-.2.7 0s.2.5 0 .7l-.7.7c-.1.1-.2.1-.3.1z" fill="#97a4a9" class="color000000 svgShape"></path><path d="M15 26.5c-1.4 0-2.5-1.1-2.5-2.5 0-.7.3-1.3.7-1.8.5-.5 1.1-.7 1.8-.7v1c-.4 0-.8.2-1.1.4-.3.3-.4.7-.4 1.1 0 .8.7 1.5 1.5 1.5v1zm20.5 0H34c-.3 0-.5-.2-.5-.5v-9c0-.3.2-.5.5-.5h1.5c.3 0 .5.2.5.5v.8l.6-.6c.2-.2.5-.2.7 0l1.4 1.4c.2.2.2.5 0 .7l-.5.7h.8c.3 0 .5.2.5.5v2c0 .3-.2.5-.5.5h-.8l.6.6c.2.2.2.5 0 .7l-1.4 1.4c-.2.2-.5.2-.7 0l-.7-.5v.8c0 .3-.2.5-.5.5zm-1-1h.5v-.7c0-.2.1-.4.3-.5.2-.1.4-.1.6-.2.2-.1.4-.1.6.1l.5.5.7-.7-.5-.5c-.2-.2-.2-.4-.1-.6.1-.2.2-.4.2-.6.1-.2.3-.4.5-.4h.7v-1h-.7c-.2 0-.4-.1-.5-.4-.1-.2-.1-.4-.2-.6-.1-.2-.1-.4.1-.6l.5-.5-.7-.5-.5.5c-.2.2-.4.2-.6.1-.2-.1-.4-.2-.6-.2-.2-.1-.3-.3-.3-.5v-.7h-.5v8z" fill="#97a4a9" class="color000000 svgShape"></path><path d="M34.5 23.5c-.2 0-.4 0-.7-.1-.2-.1-.3-.3-.3-.5v-2.8c0-.2.1-.4.3-.5 1.4-.5 2.7.6 2.7 1.9 0 1.1-.9 2-2 2zm0-3v2c.6 0 1-.4 1-1s-.4-1-1-1zM25 24.5h-1c-.8 0-1.5-.7-1.5-1.5v-3c0-.8.7-1.5 1.5-1.5h1c.8 0 1.5.7 1.5 1.5v3c0 .8-.7 1.5-1.5 1.5zm-1-5c-.3 0-.5.2-.5.5v3c0 .3.2.5.5.5h1c.3 0 .5-.2.5-.5v-3c0-.3-.2-.5-.5-.5h-1z" fill="#97a4a9" class="color000000 svgShape"></path><path d="M24 48C10.8 48 0 37.2 0 24S10.8 0 24 0s24 10.8 24 24-10.8 24-24 24zm0-47C11.3 1 1 11.3 1 24s10.3 23 23 23 23-10.3 23-23S36.7 1 24 1z" fill="#97a4a9" class="color000000 svgShape"></path></svg>